<?xml version="1.0" encoding="UTF-8" standalone="no"?>
<svg
   xmlns:osb="http://www.openswatchbook.org/uri/2009/osb"
   xmlns:dc="http://purl.org/dc/elements/1.1/"
   xmlns:cc="http://creativecommons.org/ns#"
   xmlns:rdf="http://www.w3.org/1999/02/22-rdf-syntax-ns#"
   xmlns:svg="http://www.w3.org/2000/svg"
   xmlns="http://www.w3.org/2000/svg"
   xmlns:sodipodi="http://sodipodi.sourceforge.net/DTD/sodipodi-0.dtd"
   xmlns:inkscape="http://www.inkscape.org/namespaces/inkscape"
   inkscape:export-ydpi="109.11113"
   inkscape:export-xdpi="109.11113"
   inkscape:export-filename="C:\Users\hs\Documents\VS Code\Python\SPS\icons\information_button.png"
   sodipodi:docname="setting_button.svg"
   inkscape:version="1.0 (4035a4fb49, 2020-05-01)"
   id="svg8"
   version="1.1"
   viewBox="0 0 7.9374995 7.9374995"
   height="30"
   width="30">
  <defs
     id="defs2">
    <linearGradient
       id="linearGradient1410"
       osb:paint="solid">
      <stop
         style="stop-color:#010103;stop-opacity:1;"
         offset="0"
         id="stop1408" />
    </linearGradient>
  </defs>
  <sodipodi:namedview
     inkscape:window-maximized="1"
     inkscape:window-y="-6"
     inkscape:window-x="-6"
     inkscape:window-height="1018"
     inkscape:window-width="1920"
     showgrid="false"
     inkscape:document-rotation="0"
     inkscape:current-layer="layer1"
     inkscape:document-units="px"
     inkscape:cy="15.247356"
     inkscape:cx="20.678786"
     inkscape:zoom="21.602919"
     inkscape:pageshadow="2"
     inkscape:pageopacity="0.0"
     borderopacity="1.0"
     bordercolor="#666666"
     pagecolor="#ffffff"
     id="base"
     units="px" />
  <metadata
     id="metadata5">
    <rdf:RDF>
      <cc:Work
         rdf:about="">
        <dc:format>image/svg+xml</dc:format>
        <dc:type
           rdf:resource="http://purl.org/dc/dcmitype/StillImage" />
        <dc:title></dc:title>
      </cc:Work>
    </rdf:RDF>
  </metadata>
  <g
     id="layer1"
     inkscape:groupmode="layer"
     inkscape:label="Ebene 1">
    <text
       id="text857"
       y="3.6497765"
       x="2.9026747"
       style="font-size:3.52777px;line-height:1.25;font-family:sans-serif;stroke-width:0.264583"
       xml:space="preserve"><tspan
         style="stroke-width:0.264583"
         y="3.6497765"
         x="2.9026747"
         id="tspan855"
         sodipodi:role="line"></tspan></text>
    <g
       id="g873">
      <path
         sodipodi:type="star"
         style="fill:#fbfbfb;fill-opacity:1;stroke:#0b0d0b;stroke-width:0.079375;stroke-linecap:round"
         id="path867"
         sodipodi:sides="8"
         sodipodi:cx="3.8579853"
         sodipodi:cy="4.0049562"
         sodipodi:r1="2.8579652"
         sodipodi:r2="1.9700494"
         sodipodi:arg1="0.79145868"
         sodipodi:arg2="1.2030956"
         inkscape:flatsided="false"
         inkscape:rounded="0.5"
         inkscape:randomized="0"
         d="M 5.8665872,6.0380533 C 5.3902152,6.4911839 5.1750907,5.5954057 4.5661605,5.8433203 3.9866816,6.0792443 4.4661335,6.8785083 3.8406646,6.862869 3.183407,6.8464349 3.6647018,6.060908 3.0588211,5.8056314 2.4822441,5.5627015 2.2561029,6.4668901 1.8248882,6.0135582 1.3717576,5.5371862 2.2675358,5.3220617 2.0196212,4.7131315 1.7836972,4.1336526 0.98443322,4.6131045 1.0000725,3.9876356 1.0165067,3.330378 1.8020335,3.8116728 2.0573101,3.2057921 2.30024,2.6292151 1.3960514,2.4030739 1.8493833,1.9718592 2.3257553,1.5187286 2.5408798,2.4145068 3.14981,2.1665922 3.7292889,1.9306682 3.249837,1.1314042 3.8753059,1.1470435 4.5325635,1.1634776 4.0512687,1.9490044 4.6571494,2.204281 5.2337264,2.447211 5.4598676,1.5430223 5.8910823,1.9963543 6.3442129,2.4727263 5.4484347,2.6878508 5.6963493,3.296781 5.9322733,3.8762599 6.7315373,3.396808 6.715898,4.0222769 6.6994639,4.6795345 5.9139371,4.1982397 5.6586605,4.8041204 c -0.24293,0.576577 0.6612587,0.8027182 0.2079267,1.2339329 z"
         inkscape:transform-center-x="-0.026870232"
         inkscape:transform-center-y="-0.52052179" />
      <ellipse
         style="fill:#fbfbfb;fill-opacity:1;stroke:#0b0d0b;stroke-width:0.079375;stroke-linecap:round"
         id="path869"
         cx="3.808995"
         cy="4.0416989"
         rx="0.60013103"
         ry="0.58788347" />
    </g>
  </g>
</svg>
